  0
SECTION
  2
HEADER
  9
$ACADVER
  1
AC1015
  9
$ACADMAINTVER
 70
     6
  9
$DWGCODEPAGE
  3
ANSI_1252
  9
$INSBASE
 10
0.0
 20
0.0
 30
0.0
  9
$EXTMIN
 10
-45.0
 20
-11.5
 30
0.0
  9
$EXTMAX
 10
45.0
 20
18.5
 30
0.0
  9
$LIMMIN
 10
0.0
 20
0.0
  9
$LIMMAX
 10
420.0
 20
297.0
  9
$ORTHOMODE
 70
     0
  9
$REGENMODE
 70
     1
  9
$FILLMODE
 70
     1
  9
$QTEXTMODE
 70
     0
  9
$MIRRTEXT
 70
     1
  9
$LTSCALE
 40
1.0
  9
$ATTMODE
 70
     1
  9
$TEXTSIZE
 40
3.5
  9
$TRACEWID
 40
1.0
  9
$TEXTSTYLE
  7
Standard
  9
$CLAYER
  8
0
  9
$CELTYPE
  6
ByLayer
  9
$CECOLOR
 62
   256
  9
$CELTSCALE
 40
1.0
  9
$DISPSILH
 70
     0
  9
$DIMSCALE
 40
1.0
  9
$DIMASZ
 40
3.302
  9
$DIMEXO
 40
1.0
  9
$DIMDLI
 40
3.75
  9
$DIMRND
 40
0.0
  9
$DIMDLE
 40
0.0
  9
$DIMEXE
 40
1.0
  9
$DIMTP
 40
0.0
  9
$DIMTM
 40
0.0
  9
$DIMTXT
 40
3.5
  9
$DIMCEN
 40
2.5
  9
$DIMTSZ
 40
0.0
  9
$DIMTOL
 70
     0
  9
$DIMLIM
 70
     0
  9
$DIMTIH
 70
     1
  9
$DIMTOH
 70
     1
  9
$DIMSE1
 70
     0
  9
$DIMSE2
 70
     0
  9
$DIMTAD
 70
     1
  9
$DIMZIN
 70
     0
  9
$DIMBLK
  1

  9
$DIMASO
 70
     1
  9
$DIMSHO
 70
     1
  9
$DIMPOST
  1

  9
$DIMAPOST
  1

  9
$DIMALT
 70
     0
  9
$DIMALTD
 70
     3
  9
$DIMALTF
 40
0.0393700787
  9
$DIMLFAC
 40
1.0
  9
$DIMTOFL
 70
     1
  9
$DIMTVP
 40
0.0
  9
$DIMTIX
 70
     0
  9
$DIMSOXD
 70
     0
  9
$DIMSAH
 70
     0
  9
$DIMBLK1
  1

  9
$DIMBLK2
  1

  9
$DIMSTYLE
  2
ISO-25
  9
$DIMCLRD
 70
     0
  9
$DIMCLRE
 70
     0
  9
$DIMCLRT
 70
     0
  9
$DIMTFAC
 40
1.0
  9
$DIMGAP
 40
1.524
  9
$DIMJUST
 70
     0
  9
$DIMSD1
 70
     0
  9
$DIMSD2
 70
     0
  9
$DIMTOLJ
 70
     0
  9
$DIMTZIN
 70
     0
  9
$DIMALTZ
 70
     0
  9
$DIMALTTZ
 70
     0
  9
$DIMUPT
 70
     0
  9
$DIMDEC
 70
     2
  9
$DIMTDEC
 70
     2
  9
$DIMALTU
 70
     2
  9
$DIMALTTD
 70
     3
  9
$DIMTXSTY
  7
Standard
  9
$DIMAUNIT
 70
     0
  9
$DIMADEC
 70
     2
  9
$DIMALTRND
 40
0.0
  9
$DIMAZIN
 70
     0
  9
$DIMDSEP
 70
    44
  9
$DIMATFIT
 70
     3
  9
$DIMFRAC
 70
     0
  9
$DIMLDRBLK
  1

  9
$DIMLUNIT
 70
     2
  9
$DIMLWD
 70
    -2
  9
$DIMLWE
 70
    -2
  9
$DIMTMOVE
 70
     0
  9
$LUNITS
 70
     2
  9
$LUPREC
 70
     2
  9
$SKETCHINC
 40
1.0
  9
$FILLETRAD
 40
10.0
  9
$AUNITS
 70
     0
  9
$AUPREC
 70
     2
  9
$MENU
  1
.
  9
$ELEVATION
 40
0.0
  9
$PELEVATION
 40
0.0
  9
$THICKNESS
 40
0.0
  9
$LIMCHECK
 70
     0
  9
$CHAMFERA
 40
0.0
  9
$CHAMFERB
 40
0.0
  9
$CHAMFERC
 40
0.0
  9
$CHAMFERD
 40
0.0
  9
$SKPOLY
 70
     0
  9
$TDCREATE
 40
2458201.369089664
  9
$TDUCREATE
 40
2458201.139922998
  9
$TDUPDATE
 40
2458201.369119294
  9
$TDUUPDATE
 40
2458201.139952627
  9
$TDINDWG
 40
0.0000000116
  9
$TDUSRTIMER
 40
0.0000000116
  9
$USRTIMER
 70
     1
  9
$ANGBASE
 50
0.0
  9
$ANGDIR
 70
     0
  9
$PDMODE
 70
     0
  9
$PDSIZE
 40
-1.0
  9
$PLINEWID
 40
0.0
  9
$SPLFRAME
 70
     0
  9
$SPLINETYPE
 70
     6
  9
$SPLINESEGS
 70
     8
  9
$HANDSEED
  5
93
  9
$SURFTAB1
 70
     6
  9
$SURFTAB2
 70
     6
  9
$SURFTYPE
 70
     6
  9
$SURFU
 70
     6
  9
$SURFV
 70
     6
  9
$UCSBASE
  2

  9
$UCSNAME
  2

  9
$UCSORG
 10
0.0
 20
0.0
 30
0.0
  9
$UCSXDIR
 10
1.0
 20
0.0
 30
0.0
  9
$UCSYDIR
 10
0.0
 20
1.0
 30
0.0
  9
$UCSORTHOREF
  2

  9
$UCSORTHOVIEW
 70
     0
  9
$UCSORGTOP
 10
0.0
 20
0.0
 30
0.0
  9
$UCSORGBOTTOM
 10
0.0
 20
0.0
 30
0.0
  9
$UCSORGLEFT
 10
0.0
 20
0.0
 30
0.0
  9
$UCSORGRIGHT
 10
0.0
 20
0.0
 30
0.0
  9
$UCSORGFRONT
 10
0.0
 20
0.0
 30
0.0
  9
$UCSORGBACK
 10
0.0
 20
0.0
 30
0.0
  9
$PUCSBASE
  2

  9
$PUCSNAME
  2

  9
$PUCSORG
 10
0.0
 20
0.0
 30
0.0
  9
$PUCSXDIR
 10
1.0
 20
0.0
 30
0.0
  9
$PUCSYDIR
 10
0.0
 20
1.0
 30
0.0
  9
$PUCSORTHOREF
  2

  9
$PUCSORTHOVIEW
 70
     0
  9
$PUCSORGTOP
 10
0.0
 20
0.0
 30
0.0
  9
$PUCSORGBOTTOM
 10
0.0
 20
0.0
 30
0.0
  9
$PUCSORGLEFT
 10
0.0
 20
0.0
 30
0.0
  9
$PUCSORGRIGHT
 10
0.0
 20
0.0
 30
0.0
  9
$PUCSORGFRONT
 10
0.0
 20
0.0
 30
0.0
  9
$PUCSORGBACK
 10
0.0
 20
0.0
 30
0.0
  9
$USERI1
 70
     0
  9
$USERI2
 70
     0
  9
$USERI3
 70
     0
  9
$USERI4
 70
     0
  9
$USERI5
 70
     0
  9
$USERR1
 40
0.0
  9
$USERR2
 40
0.0
  9
$USERR3
 40
0.0
  9
$USERR4
 40
0.0
  9
$USERR5
 40
0.0
  9
$WORLDVIEW
 70
     1
  9
$SHADEDGE
 70
     3
  9
$SHADEDIF
 70
    70
  9
$TILEMODE
 70
     1
  9
$MAXACTVP
 70
    64
  9
$PINSBASE
 10
0.0
 20
0.0
 30
0.0
  9
$PLIMCHECK
 70
     0
  9
$PEXTMIN
 10
1.0000000000E+20
 20
1.0000000000E+20
 30
1.0000000000E+20
  9
$PEXTMAX
 10
-1.0000000000E+20
 20
-1.0000000000E+20
 30
-1.0000000000E+20
  9
$PLIMMIN
 10
0.0
 20
0.0
  9
$PLIMMAX
 10
420.0
 20
297.0
  9
$UNITMODE
 70
     0
  9
$VISRETAIN
 70
     1
  9
$PLINEGEN
 70
     0
  9
$PSLTSCALE
 70
     1
  9
$TREEDEPTH
 70
  3020
  9
$CMLSTYLE
  2
Standard
  9
$CMLJUST
 70
     0
  9
$CMLSCALE
 40
20.0
  9
$PROXYGRAPHICS
 70
     1
  9
$MEASUREMENT
 70
     1
  9
$CELWEIGHT
370
    -1
  9
$ENDCAPS
280
     0
  9
$JOINSTYLE
280
     0
  9
$LWDISPLAY
290
     1
  9
$INSUNITS
 70
     4
  9
$HYPERLINKBASE
  1

  9
$STYLESHEET
  1

  9
$XEDIT
290
     1
  9
$CEPSNTYPE
380
     0
  9
$PSTYLEMODE
290
     1
  9
$FINGERPRINTGUID
  2
{5DFFE9E1-78FA-46F5-87B1-10BC0BE4E044}
  9
$VERSIONGUID
  2
{FAEB1C32-E019-11D5-929B-00C0DF256EC4}
  9
$EXTNAMES
290
     1
  9
$PSVPSCALE
 40
0.0
  9
$OLESTARTUP
290
     0
  0
ENDSEC
  0
SECTION
  2
CLASSES
  0
CLASS
  1
ACDBDICTIONARYWDFLT
  2
AcDbDictionaryWithDefault
  3
ObjectDBX Classes
 90
        0
280
     0
281
     0
  0
CLASS
  1
VISUALSTYLE
  2
AcDbVisualStyle
  3
ObjectDBX Classes
 90
     4095
280
     0
281
     0
  0
CLASS
  1
MATERIAL
  2
AcDbMaterial
  3
ObjectDBX Classes
 90
     1153
280
     0
281
     0
  0
CLASS
  1
SCALE
  2
AcDbScale
  3
ObjectDBX Classes
 90
     1153
280
     0
281
     0
  0
CLASS
  1
TABLESTYLE
  2
AcDbTableStyle
  3
ObjectDBX Classes
 90
     4095
280
     0
281
     0
  0
CLASS
  1
MLEADERSTYLE
  2
AcDbMLeaderStyle
  3
ACDB_MLEADERSTYLE_CLASS
 90
     4095
280
     0
281
     0
  0
CLASS
  1
SUN
  2
AcDbSun
  3
SCENEOE
 90
     1153
280
     0
281
     0
  0
CLASS
  1
ACDBPLACEHOLDER
  2
AcDbPlaceHolder
  3
ObjectDBX Classes
 90
        0
280
     0
281
     0
  0
CLASS
  1
LAYOUT
  2
AcDbLayout
  3
ObjectDBX Classes
 90
        0
280
     0
281
     0
  0
ENDSEC
  0
SECTION
  2
TABLES
  0
TABLE
  2
VPORT
  5
8
330
0
100
AcDbSymbolTable
 70
     1
  0
VPORT
  5
29
330
8
100
AcDbSymbolTableRecord
100
AcDbViewportTableRecord
  2
*Active
 70
     0
 10
0.0
 20
0.0
 11
1.0
 21
1.0
 12
0.0
 22
3.5
 13
0.0
 23
0.0
 14
10.0
 24
10.0
 15
10.0
 25
10.0
 16
0.0
 26
0.0
 36
1.0
 17
0.0
 27
0.0
 37
0.0
 40
30.6
 41
3.0
 42
50.0
 43
0.0
 44
0.0
 50
0.0
 51
0.0
 71
     0
 72
   100
 73
     1
 74
     3
 75
     0
 76
     0
 77
     0
 78
     0
281
     0
 65
     1
110
0.0
120
0.0
130
0.0
111
1.0
121
0.0
131
0.0
112
0.0
122
1.0
132
0.0
 79
     0
146
0.0
  0
ENDTAB
  0
TABLE
  2
LTYPE
  5
5
330
0
100
AcDbSymbolTable
 70
     6
  0
LTYPE
  5
14
330
5
100
AcDbSymbolTableRecord
100
AcDbLinetypeTableRecord
  2
ByBlock
 70
     0
  3

 72
    65
 73
     0
 40
0.0
  0
LTYPE
  5
15
330
5
100
AcDbSymbolTableRecord
100
AcDbLinetypeTableRecord
  2
ByLayer
 70
     0
  3

 72
    65
 73
     0
 40
0.0
  0
LTYPE
  5
16
330
5
100
AcDbSymbolTableRecord
100
AcDbLinetypeTableRecord
  2
Continuous
 70
     0
  3
Solid line
 72
    65
 73
     0
 40
0.0
  0
LTYPE
  5
6E
330
5
100
AcDbSymbolTableRecord
100
AcDbLinetypeTableRecord
  2
HIDDEN
 70
     0
  3
Hidden __ __ __ __ __ __ __ __ __ __ __ __ __ __
 72
    65
 73
     2
 40
1.905
 49
1.27
 74
     0
 49
-0.635
 74
     0
  0
LTYPE
  5
6F
330
5
100
AcDbSymbolTableRecord
100
AcDbLinetypeTableRecord
  2
PHANTOM
 70
     0
  3
Phantom ______  __  __  ______  __  __  ______
 72
    65
 73
     6
 40
12.7
 49
6.35
 74
     0
 49
-1.27
 74
     0
 49
1.27
 74
     0
 49
-1.27
 74
     0
 49
1.27
 74
     0
 49
-1.27
 74
     0
  0
LTYPE
  5
70
330
5
100
AcDbSymbolTableRecord
100
AcDbLinetypeTableRecord
  2
CENTER
 70
     0
  3
Center ____ _ ____ _ ____ _ ____ _ ____ _ ____
 72
    65
 73
     4
 40
10.16
 49
6.35
 74
     0
 49
-1.27
 74
     0
 49
1.27
 74
     0
 49
-1.27
 74
     0
  0
LTYPE
  5
71
330
5
100
AcDbSymbolTableRecord
100
AcDbLinetypeTableRecord
  2
CENTERX2
 70
     0
  3
Center (2x) ________  __  ________  __  _____
 72
    65
 73
     4
 40
20.32
 49
12.7
 74
     0
 49
-2.54
 74
     0
 49
2.54
 74
     0
 49
-2.54
 74
     0
  0
LTYPE
  5
72
330
5
100
AcDbSymbolTableRecord
100
AcDbLinetypeTableRecord
  2
DOT2
 70
     0
  3
Dot (.5x) ........................................
 72
    65
 73
     2
 40
0.635
 49
0.0
 74
     0
 49
-0.635
 74
     0
  0
ENDTAB
  0
TABLE
  2
LAYER
  5
2
330
0
100
AcDbSymbolTable
 70
     1
  0
LAYER
  5
10
330
2
100
AcDbSymbolTableRecord
100
AcDbLayerTableRecord
  2
0
 70
     0
 62
     7
  6
Continuous
370
    -3
390
F
  0
ENDTAB
  0
TABLE
  2
STYLE
  5
3
330
0
100
AcDbSymbolTable
 70
     1
  0
STYLE
  5
11
330
3
100
AcDbSymbolTableRecord
100
AcDbTextStyleTableRecord
  2
Standard
 70
     0
 40
0.0
 41
1.0
 50
0.0
 71
     0
 42
3.5
  3
txt
  4

  0
ENDTAB
  0
TABLE
  2
VIEW
  5
6
330
0
100
AcDbSymbolTable
 70
     0
  0
ENDTAB
  0
TABLE
  2
UCS
  5
7
330
0
100
AcDbSymbolTable
 70
     0
  0
ENDTAB
  0
TABLE
  2
APPID
  5
9
330
0
100
AcDbSymbolTable
 70
     1
  0
APPID
  5
12
330
9
100
AcDbSymbolTableRecord
100
AcDbRegAppTableRecord
  2
ACAD
 70
     0
  0
ENDTAB
  0
TABLE
  2
DIMSTYLE
  5
A
330
0
100
AcDbSymbolTable
 70
     1
100
AcDbDimStyleTable
  0
DIMSTYLE
105
27
330
A
100
AcDbSymbolTableRecord
100
AcDbDimStyleTableRecord
  2
ISO-25
 70
     0
 41
2.5
 42
0.625
 43
3.75
 44
1.25
 73
     0
 74
     0
 77
     1
 78
     8
140
2.5
141
2.5
143
0.0393700787
147
0.625
171
     3
172
     1
178
     0
271
     2
272
     2
274
     3
278
    44
283
     0
284
     8
340
11
  0
ENDTAB
  0
TABLE
  2
BLOCK_RECORD
  5
1
330
0
100
AcDbSymbolTable
 70
     1
  0
BLOCK_RECORD
  5
1F
330
1
100
AcDbSymbolTableRecord
100
AcDbBlockTableRecord
  2
*Model_Space
340
22
  0
BLOCK_RECORD
  5
1B
330
1
100
AcDbSymbolTableRecord
100
AcDbBlockTableRecord
  2
*Paper_Space
340
1E
  0
BLOCK_RECORD
  5
23
330
1
100
AcDbSymbolTableRecord
100
AcDbBlockTableRecord
  2
*Paper_Space0
340
26
  0
ENDTAB
  0
ENDSEC
  0
SECTION
  2
BLOCKS
  0
BLOCK
  5
20
330
1F
100
AcDbEntity
  8
0
100
AcDbBlockBegin
  2
*Model_Space
 70
     0
 10
0.0
 20
0.0
 30
0.0
  3
*Model_Space
  1

  0
ENDBLK
  5
21
330
1F
100
AcDbEntity
  8
0
100
AcDbBlockEnd
  0
BLOCK
  5
1C
330
1B
100
AcDbEntity
 67
     1
  8
0
100
AcDbBlockBegin
  2
*Paper_Space
 70
     0
 10
0.0
 20
0.0
 30
0.0
  3
*Paper_Space
  1

  0
ENDBLK
  5
1D
330
1B
100
AcDbEntity
 67
     1
  8
0
100
AcDbBlockEnd
  0
BLOCK
  5
24
330
23
100
AcDbEntity
  8
0
100
AcDbBlockBegin
  2
*Paper_Space0
 70
     0
 10
0.0
 20
0.0
 30
0.0
  3
*Paper_Space0
  1

  0
ENDBLK
  5
25
330
23
100
AcDbEntity
  8
0
100
AcDbBlockEnd
  0
ENDSEC
  0
SECTION
  2
ENTITIES
  0
ARC
  5
73
330
1F
100
AcDbEntity
  8
0
  6
Continuous
 62
     7
100
AcDbCircle
 10
-25.0
 20
-7.0
 30
0.0
 40
4.499999999999996
100
AcDbArc
 50
0.0
 51
180.0
  0
ARC
  5
74
330
1F
100
AcDbEntity
  8
0
  6
Continuous
 62
     7
100
AcDbCircle
 10
25.0
 20
-7.0
 30
0.0
 40
4.500000000000021
100
AcDbArc
 50
0.0
 51
180.0
  0
LINE
  5
75
330
1F
100
AcDbEntity
  8
0
  6
Continuous
 62
     7
100
AcDbLine
 10
-29.5
 20
-7.0
 30
0.0
 11
-29.5
 21
-9.2923553904
 31
0.0
  0
LINE
  5
76
330
1F
100
AcDbEntity
  8
0
  6
Continuous
 62
     7
100
AcDbLine
 10
-45.0
 20
18.5
 30
0.0
 11
45.0
 21
18.5
 31
0.0
  0
LINE
  5
77
330
1F
100
AcDbEntity
  8
0
  6
Continuous
 62
     7
100
AcDbLine
 10
-45.0
 20
18.5
 30
0.0
 11
-45.0
 21
-11.5
 31
0.0
  0
LINE
  5
78
330
1F
100
AcDbEntity
  8
0
  6
Continuous
 62
     7
100
AcDbLine
 10
-45.0
 20
-11.5
 30
0.0
 11
-30.25
 21
-11.5
 31
0.0
  0
LINE
  5
79
330
1F
100
AcDbEntity
  8
0
  6
Continuous
 62
     7
100
AcDbLine
 10
45.0
 20
18.5
 30
0.0
 11
45.0
 21
-11.5
 31
0.0
  0
LINE
  5
7A
330
1F
100
AcDbEntity
  8
0
  6
Continuous
 62
     7
100
AcDbLine
 10
0.0
 20
0.0
 30
0.0
 11
0.0
 21
-3.4014104352
 31
0.0
  0
LINE
  5
7B
330
1F
100
AcDbEntity
  8
0
  6
Continuous
 62
     7
100
AcDbLine
 10
20.5
 20
-7.0
 30
0.0
 11
20.5
 21
-9.2923553904
 31
0.0
  0
LINE
  5
7C
330
1F
100
AcDbEntity
  8
0
  6
Continuous
 62
     7
100
AcDbLine
 10
-20.5
 20
-7.0
 30
0.0
 11
-20.5
 21
-9.2923553904
 31
0.0
  0
LINE
  5
7D
330
1F
100
AcDbEntity
  8
0
  6
Continuous
 62
     7
100
AcDbLine
 10
-19.75
 20
-11.5
 30
0.0
 11
19.75
 21
-11.5
 31
0.0
  0
LINE
  5
7E
330
1F
100
AcDbEntity
  8
0
  6
Continuous
 62
     7
100
AcDbLine
 10
29.5
 20
-7.0
 30
0.0
 11
29.5
 21
-9.2923553904
 31
0.0
  0
LINE
  5
7F
330
1F
100
AcDbEntity
  8
0
  6
Continuous
 62
     7
100
AcDbLine
 10
30.25
 20
-11.5
 30
0.0
 11
45.0
 21
-11.5
 31
0.0
  0
LINE
  5
80
330
1F
100
AcDbEntity
  8
0
  6
Continuous
 62
     7
100
AcDbLine
 10
-30.25
 20
-11.5
 30
0.0
 11
-28.5
 21
-11.5
 31
0.0
  0
LINE
  5
81
330
1F
100
AcDbEntity
  8
0
  6
Continuous
 62
     7
100
AcDbLine
 10
-28.5
 20
-11.5
 30
0.0
 11
-29.5
 21
-9.2923553904
 31
0.0
  0
LINE
  5
82
330
1F
100
AcDbEntity
  8
0
  6
Continuous
 62
     7
100
AcDbLine
 10
-20.5
 20
-9.2923553904
 30
0.0
 11
-21.5
 21
-11.5
 31
0.0
  0
LINE
  5
83
330
1F
100
AcDbEntity
  8
0
  6
Continuous
 62
     7
100
AcDbLine
 10
-21.5
 20
-11.5
 30
0.0
 11
-19.75
 21
-11.5
 31
0.0
  0
LINE
  5
84
330
1F
100
AcDbEntity
  8
0
  6
Continuous
 62
     7
100
AcDbLine
 10
21.5
 20
-11.5
 30
0.0
 11
19.75
 21
-11.5
 31
0.0
  0
LINE
  5
85
330
1F
100
AcDbEntity
  8
0
  6
Continuous
 62
     7
100
AcDbLine
 10
20.5
 20
-9.2923553904
 30
0.0
 11
21.5
 21
-11.5
 31
0.0
  0
LINE
  5
86
330
1F
100
AcDbEntity
  8
0
  6
Continuous
 62
     7
100
AcDbLine
 10
30.25
 20
-11.5
 30
0.0
 11
28.5
 21
-11.5
 31
0.0
  0
LINE
  5
87
330
1F
100
AcDbEntity
  8
0
  6
Continuous
 62
     7
100
AcDbLine
 10
28.5
 20
-11.5
 30
0.0
 11
29.5
 21
-9.2923553904
 31
0.0
  0
LWPOLYLINE
  5
88
330
1F
100
AcDbEntity
  8
0
  6
Continuous
 62
     7
100
AcDbPolyline
 90
      124
 70
   128
 43
0.0
 10
-3.089742735
 20
6.8364383013
 10
-3.3526642628
 20
6.6730769231
 10
-3.3526642628
 20
6.6730769231
 10
-3.4417067308
 20
6.7782451923
 10
-3.5391626603
 20
6.8693910256
 10
-3.6436298077
 20
6.9465144231
 10
-3.7558092949
 20
7.0096153846
 10
-3.8764022436
 20
7.0586939103
 10
-4.0047075321
 20
7.09375
 10
-4.1400240385
 20
7.1147836538
 10
-4.2837540064
 20
7.1217948718
 10
-4.2837540064
 20
7.1217948718
 10
-4.3987379808
 20
7.1168870192
 10
-4.5095152244
 20
7.1035657051
 10
-4.6146834936
 20
7.0804286859
 10
-4.7149439103
 20
7.0488782051
 10
-4.8102964744
 20
7.0075120192
 10
-4.9007411859
 20
6.95703125
 10
-4.9862780449
 20
6.8981370192
 10
-5.0669070513
 20
6.8294270833
 10
-5.1398237179
 20
6.7544070513
 10
-5.2029246795
 20
6.6751802885
 10
-5.2569110577
 20
6.5924479167
 10
-5.300380609
 20
6.5055088141
 10
-5.3347355769
 20
6.4150641026
 10
-5.3585737179
 20
6.3204126603
 10
-5.3732972756
 20
6.2215544872
 10
-5.3782051282
 20
6.1191907051
 10
-5.3782051282
 20
6.1191907051
 10
-5.3690905449
 20
5.9852764423
 10
-5.3424479167
 20
5.8555689103
 10
-5.2975761218
 20
5.7293669872
 10
-5.2351762821
 20
5.6073717949
 10
-5.156650641
 20
5.4944911859
 10
-5.0648036859
 20
5.3942307692
 10
-4.9603365385
 20
5.3079927885
 10
-4.8418469551
 20
5.2350761218
 10
-4.7128405449
 20
5.1768830128
 10
-4.5768229167
 20
5.1355168269
 10
-4.4330929487
 20
5.1109775641
 10
-4.281650641
 20
5.1025641026
 10
-4.281650641
 20
5.1025641026
 10
-4.1428285256
 20
5.1095753205
 10
-4.0103165064
 20
5.1306089744
 10
-3.8848157051
 20
5.1656650641
 10
-3.7649238782
 20
5.2147435897
 10
-3.6520432692
 20
5.2778445513
 10
-3.5461738782
 20
5.3549679487
 10
-3.4459134615
 20
5.4461137821
 10
-3.3526642628
 20
5.5512820513
 10
-3.3526642628
 20
5.5512820513
 10
-3.0897435897
 20
5.3788060897
 10
-3.0897435897
 20
5.3788060897
 10
-3.1374198718
 20
5.3107972756
 10
-3.1893028846
 20
5.2462940705
 10
-3.2453926282
 20
5.1859975962
 10
-3.3049879808
 20
5.1299078526
 10
-3.3680889423
 20
5.0773237179
 10
-3.4360977564
 20
5.0289463141
 10
-3.5076121795
 20
4.9840745192
 10
-3.5826322115
 20
4.9434094551
 10
-3.6611578526
 20
4.9069511218
 10
-3.7424879808
 20
4.875400641
 10
-3.8259214744
 20
4.8487580128
 10
-3.9128605769
 20
4.8270232372
 10
-4.0019030449
 20
4.8101963141
 10
-4.0944511218
 20
4.7982772436
 10
-4.1891025641
 20
4.7905649038
 10
-4.2865584936
 20
4.7884615385
 10
-4.2865584936
 20
4.7884615385
 10
-4.4351963141
 20
4.7940705128
 10
-4.5768229167
 20
4.8122996795
 10
-4.7121394231
 20
4.8417467949
 10
-4.8411458333
 20
4.8831129808
 10
-4.9638421474
 20
4.9363982372
 10
-5.0802283654
 20
5.0016025641
 10
-5.1896033654
 20
5.0787259615
 10
-5.2926682692
 20
5.1677684295
 10
-5.3866185897
 20
5.265224359
 10
-5.4672475962
 20
5.3682892628
 10
-5.5359575321
 20
5.4755608974
 10
-5.5920472756
 20
5.5884415064
 10
-5.6362179487
 20
5.7069310897
 10
-5.6670673077
 20
5.8296274038
 10
-5.6859975962
 20
5.9579326923
 10
-5.6923076923
 20
6.0911458333
 10
-5.6923076923
 20
6.0911458333
 10
-5.6895032051
 20
6.1815905449
 10
-5.6803886218
 20
6.2706330128
 10
-5.6663661859
 20
6.3582732372
 10
-5.6453325321
 20
6.4438100962
 10
-5.6193910256
 20
6.5279447115
 10
-5.5871394231
 20
6.6106770833
 10
-5.5492788462
 20
6.6913060897
 10
-5.5058092949
 20
6.7705328526
 10
-5.4567307692
 20
6.8469551282
 10
-5.4034455128
 20
6.9184695513
 10
-5.3459535256
 20
6.9864783654
 10
-5.2835536859
 20
7.0495793269
 10
-5.2176482372
 20
7.1084735577
 10
-5.1468349359
 20
7.1631610577
 10
-5.0711137821
 20
7.2136418269
 10
-4.9918870192
 20
7.2599158654
 10
-4.9091546474
 20
7.3012820513
 10
-4.8236177885
 20
7.3370392628
 10
-4.7359775641
 20
7.3671875
 10
-4.6455328526
 20
7.3917267628
 10
-4.5529847756
 20
7.4113581731
 10
-4.4583333333
 20
7.4246794872
 10
-4.3608774038
 20
7.4330929487
 10
-4.2606169872
 20
7.4358974359
 10
-4.2606169872
 20
7.4358974359
 10
-4.1351161859
 20
7.4309895833
 10
-4.0110176282
 20
7.4162660256
 10
-3.8897235577
 20
7.3924278846
 10
-3.7705328526
 20
7.3580729167
 10
-3.6569511218
 20
7.316005609
 10
-3.5517828526
 20
7.2683293269
 10
-3.4564302885
 20
7.2143429487
 10
-3.3694911859
 20
7.1547475962
 10
-3.2902644231
 20
7.0881410256
 10
-3.2173477564
 20
7.0131209936
 10
-3.1500400641
 20
6.9289863782
 10
-3.0897435897
 20
6.8364383013
  0
LWPOLYLINE
  5
89
330
1F
100
AcDbEntity
  8
0
  6
Continuous
 62
     7
100
AcDbPolyline
 90
       86
 70
   128
 43
0.0
 10
-2.4615377188
 20
8.4230769231
 10
-2.1474358974
 20
8.4230769231
 10
-2.1474358974
 20
8.4230769231
 10
-2.1474358974
 20
6.9079527244
 10
-2.1474358974
 20
6.9079527244
 10
-2.0436698718
 20
7.0320512821
 10
-1.9342948718
 20
7.1393229167
 10
-1.820713141
 20
7.23046875
 10
-1.7015224359
 20
7.3040865385
 10
-1.5774238782
 20
7.3615785256
 10
-1.4477163462
 20
7.4029447115
 10
-1.3138020833
 20
7.4274839744
 10
-1.1742788462
 20
7.4358974359
 10
-1.1742788462
 20
7.4358974359
 10
-1.0326522436
 20
7.4267828526
 10
-0.8994391026
 20
7.4001402244
 10
-0.7746394231
 20
7.3545673077
 10
-0.6582532051
 20
7.2914663462
 10
-0.5530849359
 20
7.2129407051
 10
-0.4619391026
 20
7.1224959936
 10
-0.3862179487
 20
7.0187299679
 10
-0.3252203526
 20
6.9030448718
 10
-0.2999799679
 20
6.8378405449
 10
-0.2782451923
 20
6.7635216346
 10
-0.2600160256
 20
6.6814903846
 10
-0.2445913462
 20
6.5903445513
 10
-0.2333733974
 20
6.4900841346
 10
-0.2249599359
 20
6.3821113782
 10
-0.2193509615
 20
6.2650240385
 10
-0.2179487179
 20
6.1395232372
 10
-0.2179487179
 20
6.1395232372
 10
-0.2179487179
 20
4.8333333333
 10
-0.2179487179
 20
4.8333333333
 10
-0.5320512821
 20
4.8333333333
 10
-0.5320512821
 20
4.8333333333
 10
-0.5320512821
 20
6.0364583333
 10
-0.5320512821
 20
6.0364583333
 10
-0.5327524038
 20
6.1409254808
 10
-0.5341546474
 20
6.2362780449
 10
-0.5369591346
 20
6.3225160256
 10
-0.5411658654
 20
6.4003405449
 10
-0.5460737179
 20
6.468349359
 10
-0.5523838141
 20
6.5272435897
 10
-0.5600961538
 20
6.577724359
 10
-0.5685096154
 20
6.6183894231
 10
-0.5685096154
 20
6.6183894231
 10
-0.6063701923
 20
6.7361778846
 10
-0.6568509615
 20
6.8385416667
 10
-0.7199519231
 20
6.9247796474
 10
-0.7963741987
 20
6.9955929487
 10
-0.8854166667
 20
7.0509815705
 10
-0.9870793269
 20
7.090244391
 10
-1.1020633013
 20
7.1140825321
 10
-1.2296674679
 20
7.1217948718
 10
-1.2296674679
 20
7.1217948718
 10
-1.3053886218
 20
7.1189903846
 10
-1.3790064103
 20
7.1098758013
 10
-1.4512219551
 20
7.0944511218
 10
-1.5206330128
 20
7.0734174679
 10
-1.5886418269
 20
7.0453725962
 10
-1.6538461538
 20
7.0124198718
 10
-1.7176482372
 20
6.9724559295
 10
-1.7793469551
 20
6.9268830128
 10
-1.8375400641
 20
6.8764022436
 10
-1.8901241987
 20
6.823818109
 10
-1.9378004808
 20
6.7677283654
 10
-1.9805689103
 20
6.7088341346
 10
-2.0177283654
 20
6.6471354167
 10
-2.0499799679
 20
6.5826322115
 10
-2.0773237179
 20
6.5146233974
 10
-2.0990584936
 20
6.4445112179
 10
-2.0990584936
 20
6.4445112179
 10
-2.1102764423
 20
6.3933293269
 10
-2.1200921474
 20
6.3323317308
 10
-2.128505609
 20
6.2615184295
 10
-2.1355168269
 20
6.1801883013
 10
-2.1404246795
 20
6.0897435897
 10
-2.1446314103
 20
5.9887820513
 10
-2.1467347756
 20
5.8787059295
 10
-2.1474358974
 20
5.7581129808
 10
-2.1474358974
 20
5.7581129808
 10
-2.1474358974
 20
4.8333333333
 10
-2.1474358974
 20
4.8333333333
 10
-2.4615384615
 20
4.8333333333
 10
-2.4615384615
 20
4.8333333333
 10
-2.4615384615
 20
8.4230769231
  0
LWPOLYLINE
  5
8A
330
1F
100
AcDbEntity
  8
0
  6
Continuous
 62
     7
100
AcDbPolyline
 90
       62
 70
   128
 43
0.0
 10
3.1025633216
 20
7.391025641
 10
3.1025641026
 20
4.8333333333
 10
3.1025641026
 20
4.8333333333
 10
2.7884615385
 20
4.8333333333
 10
2.7884615385
 20
4.8333333333
 10
2.7884615385
 20
5.2757411859
 10
2.7884615385
 20
5.2757411859
 10
2.6797876603
 20
5.1579527244
 10
2.5655048077
 20
5.0569911859
 10
2.4435096154
 20
4.9728565705
 10
2.3159054487
 20
4.9055488782
 10
2.1819911859
 20
4.8543669872
 10
2.0424679487
 20
4.8179086538
 10
1.8959334936
 20
4.7954727564
 10
1.7437900641
 20
4.7884615385
 10
1.7437900641
 20
4.7884615385
 10
1.6084735577
 20
4.7947716346
 10
1.4780649038
 20
4.8130008013
 10
1.3525641026
 20
4.8431490385
 10
1.2319711538
 20
4.8852163462
 10
1.1169871795
 20
4.9399038462
 10
1.0062099359
 20
5.0065104167
 10
0.9010416667
 20
5.0850360577
 10
0.80078125
 20
5.176181891
 10
0.7089342949
 20
5.2757411859
 10
0.6297075321
 20
5.3802083333
 10
0.5631009615
 20
5.4902844551
 10
0.5077123397
 20
5.6059695513
 10
0.4649439103
 20
5.7265625
 10
0.4347956731
 20
5.8520633013
 10
0.4165665064
 20
5.9831730769
 10
0.4102564103
 20
6.1191907051
 10
0.4102564103
 20
6.1191907051
 10
0.4165665064
 20
6.2524038462
 10
0.4347956731
 20
6.3814102564
 10
0.4656450321
 20
6.5048076923
 10
0.5091145833
 20
6.6239983974
 10
0.5645032051
 20
6.7375801282
 10
0.6318108974
 20
6.8462540064
 10
0.7117387821
 20
6.9507211538
 10
0.804286859
 20
7.0495793269
 10
0.9052483974
 20
7.1400240385
 10
1.0118189103
 20
7.2185496795
 10
1.1225961538
 20
7.28515625
 10
1.2389823718
 20
7.3391426282
 10
1.3602764423
 20
7.3819110577
 10
1.4864783654
 20
7.4120592949
 10
1.617588141
 20
7.4295873397
 10
1.7536057692
 20
7.4358974359
 10
1.7536057692
 20
7.4358974359
 10
1.9099559295
 20
7.4281850962
 10
2.05859375
 20
7.4050480769
 10
2.1995192308
 20
7.3657852564
 10
2.3327323718
 20
7.3117988782
 10
2.4582331731
 20
7.2409855769
 10
2.5767227564
 20
7.1512419872
 10
2.6860977564
 20
7.0439703526
 10
2.7884615385
 20
6.9177684295
 10
2.7884615385
 20
6.9177684295
 10
2.7884615385
 20
7.391025641
 10
2.7884615385
 20
7.391025641
 10
3.1025641026
 20
7.391025641
  0
LWPOLYLINE
  5
8B
330
1F
100
AcDbEntity
  8
0
  6
Continuous
 62
     7
100
AcDbPolyline
 90
       56
 70
   128
 43
0.0
 10
1.7578117549
 20
7.1217948718
 10
1.6203926282
 20
7.1133814103
 10
1.4885817308
 20
7.0888421474
 10
1.3623798077
 20
7.0474759615
 10
1.2410857372
 20
6.9899839744
 10
1.12890625
 20
6.9177684295
 10
1.0286458333
 20
6.8315304487
 10
0.9403044872
 20
6.7326722756
 10
0.8638822115
 20
6.6197916667
 10
0.8028846154
 20
6.4991987179
 10
0.7594150641
 20
6.3743990385
 10
0.7327724359
 20
6.2467948718
 10
0.7243589744
 20
6.1156850962
 10
0.7243589744
 20
6.1156850962
 10
0.7334735577
 20
5.9852764423
 10
0.7594150641
 20
5.8576722756
 10
0.8035857372
 20
5.7328725962
 10
0.8652844551
 20
5.6108774038
 10
0.9424078526
 20
5.4972956731
 10
1.0307491987
 20
5.3970352564
 10
1.1317107372
 20
5.3100961538
 10
1.2445913462
 20
5.2364783654
 10
1.3658854167
 20
5.1775841346
 10
1.4913862179
 20
5.1362179487
 10
1.62109375
 20
5.1109775641
 10
1.7550080128
 20
5.1025641026
 10
1.7550080128
 20
5.1025641026
 10
1.891025641
 20
5.1109775641
 10
2.0235376603
 20
5.1355168269
 10
2.1518429487
 20
5.1768830128
 10
2.2766426282
 20
5.2350761218
 10
2.3923277244
 20
5.3072916667
 10
2.4946915064
 20
5.3914262821
 10
2.581630609
 20
5.4874799679
 10
2.6552483974
 20
5.5947516026
 10
2.7134415064
 20
5.7118389423
 10
2.7555088141
 20
5.8366386218
 10
2.7800480769
 20
5.9677483974
 10
2.7884615385
 20
6.1065705128
 10
2.7884615385
 20
6.1065705128
 10
2.7835536859
 20
6.2124399038
 10
2.76953125
 20
6.3141025641
 10
2.7463942308
 20
6.4115584936
 10
2.7141426282
 20
6.5041065705
 10
2.6720753205
 20
6.5924479167
 10
2.6208934295
 20
6.6765825321
 10
2.5605969551
 20
6.7558092949
 10
2.4904847756
 20
6.8308293269
 10
2.4140625
 20
6.898838141
 10
2.3334334936
 20
6.9584334936
 10
2.2478966346
 20
7.008213141
 10
2.1588541667
 20
7.0488782051
 10
2.0649038462
 20
7.0811298077
 10
1.9667467949
 20
7.1035657051
 10
1.8643830128
 20
7.117588141
 10
1.7578125
 20
7.1217948718
  0
LWPOLYLINE
  5
8C
330
1F
100
AcDbEntity
  8
0
  6
Continuous
 62
     7
100
AcDbPolyline
 90
      143
 70
   128
 43
0.0
 10
3.8205124438
 20
7.391025641
 10
4.1346153846
 20
7.391025641
 10
4.1346153846
 20
7.391025641
 10
4.1346153846
 20
6.9465144231
 10
4.1346153846
 20
6.9465144231
 10
4.2215544872
 20
7.0614983974
 10
4.3098958333
 20
7.1596554487
 10
4.3989383013
 20
7.2409855769
 10
4.4893830128
 20
7.3061899038
 10
4.4893830128
 20
7.3061899038
 10
4.6162860577
 20
7.3629807692
 10
4.7466947115
 20
7.4036458333
 10
4.8799078526
 20
7.4274839744
 10
5.0166266026
 20
7.4358974359
 10
5.0166266026
 20
7.4358974359
 10
5.1091746795
 20
7.4309895833
 10
5.1989182692
 20
7.4176682692
 10
5.2865584936
 20
7.39453125
 10
5.3713942308
 20
7.3622796474
 10
5.4520232372
 20
7.3223157051
 10
5.5242387821
 20
7.2767427885
 10
5.589443109
 20
7.2248597756
 10
5.6462339744
 20
7.1666666667
 10
5.6974158654
 20
7.0993589744
 10
5.7457932692
 20
7.0187299679
 10
5.7899639423
 20
6.9254807692
 10
5.8306290064
 20
6.8182091346
 10
5.8306290064
 20
6.8182091346
 10
5.8726963141
 20
6.8918269231
 10
5.917568109
 20
6.960536859
 10
5.965244391
 20
7.0250400641
 10
6.0150240385
 20
7.0846354167
 10
6.0676081731
 20
7.1400240385
 10
6.1222956731
 20
7.1905048077
 10
6.1797876603
 20
7.2367788462
 10
6.2400841346
 20
7.2781450321
 10
6.3648838141
 20
7.3468549679
 10
6.4952924679
 20
7.3966346154
 10
6.6292067308
 20
7.4260817308
 10
6.7687299679
 20
7.4358974359
 10
6.7687299679
 20
7.4358974359
 10
6.8970352564
 20
7.4274839744
 10
7.0176282051
 20
7.4029447115
 10
7.1305088141
 20
7.3608774038
 10
7.2356770833
 20
7.3026842949
 10
7.3303285256
 20
7.2297676282
 10
7.4123597756
 20
7.1435296474
 10
7.4810697115
 20
7.0446714744
 10
7.5364583333
 20
6.9317908654
 10
7.5595953526
 20
6.8686899038
 10
7.5792267628
 20
6.7978766026
 10
7.5960536859
 20
6.7200520833
 10
7.6100761218
 20
6.6345152244
 10
7.6205929487
 20
6.5419671474
 10
7.6283052885
 20
6.4417067308
 10
7.633213141
 20
6.3337339744
 10
7.6346153846
 20
6.21875
 10
7.6346153846
 20
6.21875
 10
7.6346153846
 20
4.8333333333
 10
7.6346153846
 20
4.8333333333
 10
7.3205128205
 20
4.8333333333
 10
7.3205128205
 20
4.8333333333
 10
7.3205128205
 20
6.2201522436
 10
7.3205128205
 20
6.2201522436
 10
7.3198116987
 20
6.3183092949
 10
7.3170072115
 20
6.4087540064
 10
7.312099359
 20
6.4907852564
 10
7.3057892628
 20
6.5651041667
 10
7.2973758013
 20
6.6310096154
 10
7.2868589744
 20
6.6892027244
 10
7.2749399038
 20
6.7396834936
 10
7.2609174679
 20
6.7817508013
 10
7.2258613782
 20
6.8546674679
 10
7.1802884615
 20
6.9205729167
 10
7.1241987179
 20
6.9780649038
 10
7.0575921474
 20
7.0285456731
 10
6.9825721154
 20
7.0692107372
 10
6.8998397436
 20
7.0986578526
 10
6.8107972756
 20
7.1161858974
 10
6.7140424679
 20
7.1217948718
 10
6.7140424679
 20
7.1217948718
 10
6.5955528846
 20
7.1133814103
 10
6.4826722756
 20
7.0867387821
 10
6.3739983974
 20
7.0432692308
 10
6.2709334936
 20
6.9815705128
 10
6.1769831731
 20
6.905849359
 10
6.0970552885
 20
6.8182091346
 10
6.0304487179
 20
6.7186498397
 10
5.9771634615
 20
6.6078725962
 10
5.9554286859
 20
6.5447716346
 10
5.9364983974
 20
6.4718549679
 10
5.9210737179
 20
6.3891225962
 10
5.9077524038
 20
6.2965745192
 10
5.8979366987
 20
6.1942107372
 10
5.890224359
 20
6.08203125
 10
5.8860176282
 20
5.9600360577
 10
5.8846153846
 20
5.8282251603
 10
5.8846153846
 20
5.8282251603
 10
5.8846153846
 20
4.8333333333
 10
5.8846153846
 20
4.8333333333
 10
5.5705128205
 20
4.8333333333
 10
5.5705128205
 20
4.8333333333
 10
5.5705128205
 20
6.1339142628
 10
5.5705128205
 20
6.1339142628
 10
5.5698116987
 20
6.2439903846
 10
5.5670072115
 20
6.3456530449
 10
5.562099359
 20
6.4375
 10
5.5557892628
 20
6.5202323718
 10
5.5473758013
 20
6.5938501603
 10
5.5375600962
 20
6.6576522436
 10
5.5256410256
 20
6.7130408654
 10
5.5116185897
 20
6.7586137821
 10
5.4772636218
 20
6.8371394231
 10
5.4316907051
 20
6.9072516026
 10
5.3748998397
 20
6.9689503205
 10
5.3075921474
 20
7.0222355769
 10
5.2318709936
 20
7.0657051282
 10
5.1484375
 20
7.097255609
 10
5.0586939103
 20
7.1154847756
 10
4.9619391026
 20
7.1217948718
 10
4.9619391026
 20
7.1217948718
 10
4.8483573718
 20
7.1133814103
 10
4.73828125
 20
7.0874399038
 10
4.6317107372
 20
7.0446714744
 10
4.5293469551
 20
6.9850761218
 10
4.4353966346
 20
6.9107572115
 10
4.3540665064
 20
6.8245192308
 10
4.2860576923
 20
6.7270633013
 10
4.2313701923
 20
6.6169871795
 10
4.2089342949
 20
6.5552884615
 10
4.1893028846
 20
6.4865785256
 10
4.1724759615
 20
6.4094551282
 10
4.1591546474
 20
6.324619391
 10
4.1479366987
 20
6.2327724359
 10
4.1409254808
 20
6.1325120192
 10
4.1360176282
 20
6.0252403846
 10
4.1346153846
 20
5.9095552885
 10
4.1346153846
 20
5.9095552885
 10
4.1346153846
 20
4.8333333333
 10
4.1346153846
 20
4.8333333333
 10
3.8205128205
 20
4.8333333333
 10
3.8205128205
 20
4.8333333333
 10
3.8205128205
 20
7.391025641
  0
LWPOLYLINE
  5
8D
330
1F
100
AcDbEntity
  8
0
  6
Continuous
 62
     7
100
AcDbPolyline
 90
      100
 70
   128
 43
0.0
 10
10.4517191648
 20
5.641025641
 10
10.7307692308
 20
5.4944911859
 10
10.7307692308
 20
5.4944911859
 10
10.6620592949
 20
5.3774038462
 10
10.5884415064
 20
5.2722355769
 10
10.5099158654
 20
5.1782852564
 10
10.42578125
 20
5.0969551282
 10
10.3367387821
 20
5.0261418269
 10
10.2427884615
 20
4.964443109
 10
10.1425280449
 20
4.9111578526
 10
10.0373597756
 20
4.8669871795
 10
9.9258814103
 20
4.8326322115
 10
9.8073918269
 20
4.8080929487
 10
9.6818910256
 20
4.793369391
 10
9.5493790064
 20
4.7884615385
 10
9.5493790064
 20
4.7884615385
 10
9.4021434295
 20
4.7947716346
 10
9.2633213141
 20
4.8137019231
 10
9.1329126603
 20
4.8452524038
 10
9.0102163462
 20
4.8894230769
 10
8.8966346154
 20
4.9462139423
 10
8.7907652244
 20
5.015625
 10
8.6926081731
 20
5.09765625
 10
8.6035657051
 20
5.1923076923
 10
8.5236378205
 20
5.2946714744
 10
8.4542267628
 20
5.4005408654
 10
8.3960336538
 20
5.5099158654
 10
8.3483573718
 20
5.6227964744
 10
8.3104967949
 20
5.7384815705
 10
8.2838541667
 20
5.8569711538
 10
8.2684294872
 20
5.9796674679
 10
8.2628205128
 20
6.1051682692
 10
8.2628205128
 20
6.1051682692
 10
8.2677283654
 20
6.2229567308
 10
8.2810496795
 20
6.3379407051
 10
8.3041866987
 20
6.4494190705
 10
8.3364383013
 20
6.5580929487
 10
8.3778044872
 20
6.6632612179
 10
8.4282852564
 20
6.7649238782
 10
8.4885817308
 20
6.8637820513
 10
8.5572916667
 20
6.9591346154
 10
8.5572916667
 20
6.9591346154
 10
8.6547475962
 20
7.0706129808
 10
8.7599158654
 20
7.1680689103
 10
8.8727964744
 20
7.2493990385
 10
8.9940905449
 20
7.3167067308
 10
9.1230969551
 20
7.3685897436
 10
9.2598157051
 20
7.4064503205
 10
9.4042467949
 20
7.4281850962
 10
9.5570913462
 20
7.4358974359
 10
9.5570913462
 20
7.4358974359
 10
9.7141426282
 20
7.4281850962
 10
9.8634815705
 20
7.4043469551
 10
10.0044070513
 20
7.3650841346
 10
10.1369190705
 20
7.3103966346
 10
10.26171875
 20
7.2395833333
 10
10.3781049679
 20
7.1526442308
 10
10.4867788462
 20
7.0502804487
 10
10.5870392628
 20
6.9324919872
 10
10.5870392628
 20
6.9324919872
 10
10.6515424679
 20
6.8406450321
 10
10.7069310897
 20
6.7438902244
 10
10.7546073718
 20
6.6408253205
 10
10.7931690705
 20
6.5328525641
 10
10.8240184295
 20
6.4192708333
 10
10.8464543269
 20
6.3000801282
 10
10.859775641
 20
6.1752804487
 10
10.8653846154
 20
6.0448717949
 10
10.8653846154
 20
6.0448717949
 10
8.5769230769
 20
6.0448717949
 10
8.5769230769
 20
6.0448717949
 10
8.5832331731
 20
5.9439102564
 10
8.597255609
 20
5.8471554487
 10
8.6196915064
 20
5.7553084936
 10
8.6505408654
 20
5.668369391
 10
8.6884014423
 20
5.586338141
 10
8.7346754808
 20
5.5085136218
 10
8.7893629808
 20
5.4355969551
 10
8.8517628205
 20
5.3668870192
 10
8.9204727564
 20
5.3051883013
 10
8.9926883013
 20
5.2512019231
 10
9.0691105769
 20
5.2056290064
 10
9.1497395833
 20
5.1684695513
 10
9.2338741987
 20
5.1397235577
 10
9.3222155449
 20
5.1193910256
 10
9.4140625
 20
5.1067708333
 10
9.5101161859
 20
5.1025641026
 10
9.5101161859
 20
5.1025641026
 10
9.6040665064
 20
5.1060697115
 10
9.6959134615
 20
5.1172876603
 10
9.7870592949
 20
5.1362179487
 10
9.8768028846
 20
5.1621594551
 10
9.9630408654
 20
5.1944110577
 10
10.0422676282
 20
5.2322716346
 10
10.1144831731
 20
5.2743389423
 10
10.1803886218
 20
5.3213141026
 10
10.2441907051
 20
5.3781049679
 10
10.3107972756
 20
5.4510216346
 10
10.3802083333
 20
5.5379607372
 10
10.4517227564
 20
5.641025641
  0
LWPOLYLINE
  5
8E
330
1F
100
AcDbEntity
  8
0
  6
Continuous
 62
     7
100
AcDbPolyline
 90
       33
 70
   128
 43
0.0
 10
10.5512812734
 20
6.358974359
 10
10.5141225962
 20
6.4830729167
 10
10.4685496795
 20
6.5938501603
 10
10.4159655449
 20
6.6913060897
 10
10.3556690705
 20
6.7754407051
 10
10.2869591346
 20
6.8497596154
 10
10.20703125
 20
6.9163661859
 10
10.1172876603
 20
6.9752604167
 10
10.0170272436
 20
7.0264423077
 10
9.9104567308
 20
7.0685096154
 10
9.800380609
 20
7.0979567308
 10
9.6882011218
 20
7.1161858974
 10
9.5732171474
 20
7.1217948718
 10
9.5732171474
 20
7.1217948718
 10
9.4792668269
 20
7.1182892628
 10
9.3881209936
 20
7.1070713141
 10
9.3004807692
 20
7.0881410256
 10
9.2170472756
 20
7.0621995192
 10
9.1357171474
 20
7.0278445513
 10
9.05859375
 20
6.9871794872
 10
8.9849759615
 20
6.9381009615
 10
8.9141626603
 20
6.8820112179
 10
8.9141626603
 20
6.8820112179
 10
8.8650841346
 20
6.8357371795
 10
8.8195112179
 20
6.7838541667
 10
8.7767427885
 20
6.7270633013
 10
8.7374799679
 20
6.6646634615
 10
8.7010216346
 20
6.5959535256
 10
8.6673677885
 20
6.5223357372
 10
8.6372195513
 20
6.4438100962
 10
8.6098758013
 20
6.358974359
 10
8.6098758013
 20
6.358974359
 10
10.5512820513
 20
6.358974359
  0
LWPOLYLINE
  5
8F
330
1F
100
AcDbEntity
  8
0
  6
Continuous
 62
     7
100
AcDbPolyline
 90
        8
 70
   128
 43
0.0
 10
11.4487111568
 20
8.4230769231
 10
11.7628205128
 20
8.4230769231
 10
11.7628205128
 20
8.4230769231
 10
11.7628205128
 20
4.8333333333
 10
11.7628205128
 20
4.8333333333
 10
11.4487179487
 20
4.8333333333
 10
11.4487179487
 20
4.8333333333
 10
11.4487179487
 20
8.4230769231
  0
LWPOLYLINE
  5
90
330
1F
100
AcDbEntity
  8
0
  6
Continuous
 62
     7
100
AcDbPolyline
 90
       36
 70
   128
 43
0.0
 10
12.5915408134
 20
8.4679487179
 10
12.6497395833
 20
8.4630408654
 10
12.7037259615
 20
8.4483173077
 10
12.753505609
 20
8.4230769231
 10
12.7983774038
 20
8.3887219551
 10
12.8362379808
 20
8.3473557692
 10
12.862880609
 20
8.3010817308
 10
12.8790064103
 20
8.2513020833
 10
12.8846153846
 20
8.1973157051
 10
12.8846153846
 20
8.1973157051
 10
12.8790064103
 20
8.1447315705
 10
12.862880609
 20
8.0956530449
 10
12.8362379808
 20
8.0500801282
 10
12.7983774038
 20
8.0087139423
 10
12.753505609
 20
7.9743589744
 10
12.7037259615
 20
7.9491185897
 10
12.6497395833
 20
7.9343950321
 10
12.5915464744
 20
7.9294871795
 10
12.5915464744
 20
7.9294871795
 10
12.5340544872
 20
7.9343950321
 10
12.4814703526
 20
7.9491185897
 10
12.4316907051
 20
7.9743589744
 10
12.3868189103
 20
8.0087139423
 10
12.3496594551
 20
8.0500801282
 10
12.3230168269
 20
8.0956530449
 10
12.3068910256
 20
8.1447315705
 10
12.3012820513
 20
8.1973157051
 10
12.3012820513
 20
8.1973157051
 10
12.3068910256
 20
8.2513020833
 10
12.3230168269
 20
8.3010817308
 10
12.3496594551
 20
8.3473557692
 10
12.3868189103
 20
8.3887219551
 10
12.4316907051
 20
8.4230769231
 10
12.4814703526
 20
8.4483173077
 10
12.5340544872
 20
8.4630408654
 10
12.5915464744
 20
8.4679487179
  0
LWPOLYLINE
  5
91
330
1F
100
AcDbEntity
  8
0
  6
Continuous
 62
     7
100
AcDbPolyline
 90
        8
 70
   128
 43
0.0
 10
12.4358907342
 20
7.391025641
 10
12.75
 20
7.391025641
 10
12.75
 20
7.391025641
 10
12.75
 20
4.8333333333
 10
12.75
 20
4.8333333333
 10
12.4358974359
 20
4.8333333333
 10
12.4358974359
 20
4.8333333333
 10
12.4358974359
 20
7.391025641
  0
POINT
  5
92
330
1F
100
AcDbEntity
  8
0
  6
Continuous
 62
     7
100
AcDbPoint
 10
0.0
 20
0.0
 30
0.0
  0
ENDSEC
  0
SECTION
  2
OBJECTS
  0
DICTIONARY
  5
C
330
0
100
AcDbDictionary
281
     1
  3
ACAD_GROUP
350
D
  3
ACAD_LAYOUT
350
1A
  3
ACAD_MLINESTYLE
350
17
  3
ACAD_PLOTSETTINGS
350
19
  3
ACAD_PLOTSTYLENAME
350
E
  3
ACAD_SCALELIST
350
47
  0
DICTIONARY
  5
D
102
{ACAD_REACTORS
330
C
102
}
330
C
100
AcDbDictionary
281
     1
  0
DICTIONARY
  5
1A
102
{ACAD_REACTORS
330
C
102
}
330
C
100
AcDbDictionary
281
     1
  3
Layout1
350
1E
  3
Layout2
350
26
  3
Model
350
22
  0
DICTIONARY
  5
17
102
{ACAD_REACTORS
330
C
102
}
330
C
100
AcDbDictionary
281
     1
  3
Standard
350
18
  0
DICTIONARY
  5
19
102
{ACAD_REACTORS
330
C
102
}
330
C
100
AcDbDictionary
281
     1
  0
ACDBDICTIONARYWDFLT
  5
E
102
{ACAD_REACTORS
330
C
102
}
330
C
100
AcDbDictionary
281
     1
  3
Normal
350
F
100
AcDbDictionaryWithDefault
340
F
  0
DICTIONARY
  5
47
102
{ACAD_REACTORS
330
C
102
}
330
C
100
AcDbDictionary
281
     1
  3
A0
350
48
  3
A1
350
49
  3
A2
350
4A
  3
A3
350
4B
  3
A4
350
4C
  3
A5
350
4D
  3
A6
350
4E
  3
A7
350
4F
  3
A8
350
50
  3
A9
350
51
  3
B0
350
52
  3
B1
350
53
  3
B2
350
54
  3
B3
350
55
  3
B4
350
56
  3
B5
350
57
  3
B6
350
58
  3
B7
350
59
  3
B8
350
5A
  3
B9
350
5B
  3
C0
350
5C
  3
C1
350
5D
  3
C2
350
5E
  3
C3
350
5F
  3
C4
350
60
  3
C5
350
61
  3
C6
350
62
  3
C7
350
63
  3
C8
350
64
  3
C9
350
65
  3
D0
350
66
  3
D1
350
67
  3
D2
350
68
  0
LAYOUT
  5
1E
102
{ACAD_REACTORS
330
1A
102
}
330
1A
100
AcDbPlotSettings
  1

  2
none_device
  4

  6

 40
0.0
 41
0.0
 42
0.0
 43
0.0
 44
0.0
 45
0.0
 46
0.0
 47
0.0
 48
0.0
 49
0.0
140
0.0
141
0.0
142
1.0
143
1.0
 70
   688
 72
     1
 73
     0
 74
     5
  7

 75
    16
147
1.0
148
0.0
149
0.0
100
AcDbLayout
  1
Layout1
 70
     1
 71
     1
 10
0.0
 20
0.0
 11
420.0
 21
297.0
 12
0.0
 22
0.0
 32
0.0
 14
1.0000000000E+20
 24
1.0000000000E+20
 34
1.0000000000E+20
 15
-1.0000000000E+20
 25
-1.0000000000E+20
 35
-1.0000000000E+20
146
0.0
 13
0.0
 23
0.0
 33
0.0
 16
1.0
 26
0.0
 36
0.0
 17
0.0
 27
1.0
 37
0.0
 76
     0
330
1B
  0
LAYOUT
  5
26
102
{ACAD_REACTORS
330
1A
102
}
330
1A
100
AcDbPlotSettings
  1

  2
none_device
  4

  6

 40
0.0
 41
0.0
 42
0.0
 43
0.0
 44
0.0
 45
0.0
 46
0.0
 47
0.0
 48
0.0
 49
0.0
140
0.0
141
0.0
142
1.0
143
1.0
 70
   688
 72
     1
 73
     0
 74
     5
  7

 75
    16
147
1.0
148
0.0
149
0.0
100
AcDbLayout
  1
Layout2
 70
     1
 71
     2
 10
0.0
 20
0.0
 11
0.0
 21
0.0
 12
0.0
 22
0.0
 32
0.0
 14
0.0
 24
0.0
 34
0.0
 15
0.0
 25
0.0
 35
0.0
146
0.0
 13
0.0
 23
0.0
 33
0.0
 16
1.0
 26
0.0
 36
0.0
 17
0.0
 27
1.0
 37
0.0
 76
     0
330
23
  0
LAYOUT
  5
22
102
{ACAD_REACTORS
330
1A
102
}
330
1A
100
AcDbPlotSettings
  1

  2
none_device
  4
ANSI_A_(11.00_x_8.50_Inches)
  6

 40
6.35
 41
19.05
 42
6.35000508
 43
19.05000254
 44
279.4
 45
215.9
 46
133.34999746
 47
78.14309873
 48
0.0
 49
0.0
140
0.0
141
0.0
142
0.121
143
1.0
 70
  1696
 72
     0
 73
     0
 74
     0
  7

 75
     0
147
0.0179189148
148
-1300.4909072572
149
0.0
100
AcDbLayout
  1
Model
 70
     1
 71
     0
 10
0.0
 20
0.0
 11
420.0
 21
297.0
 12
0.0
 22
0.0
 32
0.0
 14
-45.0
 24
-11.5
 34
0.0
 15
45.0
 25
18.5
 35
0.0
146
0.0
 13
0.0
 23
0.0
 33
0.0
 16
1.0
 26
0.0
 36
0.0
 17
0.0
 27
1.0
 37
0.0
 76
     0
330
1F
331
29
  0
MLINESTYLE
  5
18
102
{ACAD_REACTORS
330
17
102
}
330
17
100
AcDbMlineStyle
  2
Standard
 70
     0
  3

 62
   256
 51
90.0
 52
90.0
 71
     2
 49
0.5
 62
   256
  6
BYLAYER
 49
-0.5
 62
   256
  6
BYLAYER
  0
ACDBPLACEHOLDER
  5
F
102
{ACAD_REACTORS
330
E
102
}
330
E
  0
SCALE
  5
48
102
{ACAD_REACTORS
330
47
102
}
330
47
100
AcDbScale
 70
     0
300
1:1
140
1.0
141
1.0
290
     1
  0
SCALE
  5
49
102
{ACAD_REACTORS
330
47
102
}
330
47
100
AcDbScale
 70
     0
300
1:2
140
1.0
141
2.0
290
     0
  0
SCALE
  5
4A
102
{ACAD_REACTORS
330
47
102
}
330
47
100
AcDbScale
 70
     0
300
1:4
140
1.0
141
4.0
290
     0
  0
SCALE
  5
4B
102
{ACAD_REACTORS
330
47
102
}
330
47
100
AcDbScale
 70
     0
300
1:5
140
1.0
141
5.0
290
     0
  0
SCALE
  5
4C
102
{ACAD_REACTORS
330
47
102
}
330
47
100
AcDbScale
 70
     0
300
1:8
140
1.0
141
8.0
290
     0
  0
SCALE
  5
4D
102
{ACAD_REACTORS
330
47
102
}
330
47
100
AcDbScale
 70
     0
300
1:10
140
1.0
141
10.0
290
     0
  0
SCALE
  5
4E
102
{ACAD_REACTORS
330
47
102
}
330
47
100
AcDbScale
 70
     0
300
1:16
140
1.0
141
16.0
290
     0
  0
SCALE
  5
4F
102
{ACAD_REACTORS
330
47
102
}
330
47
100
AcDbScale
 70
     0
300
1:20
140
1.0
141
20.0
290
     0
  0
SCALE
  5
50
102
{ACAD_REACTORS
330
47
102
}
330
47
100
AcDbScale
 70
     0
300
1:30
140
1.0
141
30.0
290
     0
  0
SCALE
  5
51
102
{ACAD_REACTORS
330
47
102
}
330
47
100
AcDbScale
 70
     0
300
1:40
140
1.0
141
40.0
290
     0
  0
SCALE
  5
52
102
{ACAD_REACTORS
330
47
102
}
330
47
100
AcDbScale
 70
     0
300
1:50
140
1.0
141
50.0
290
     0
  0
SCALE
  5
53
102
{ACAD_REACTORS
330
47
102
}
330
47
100
AcDbScale
 70
     0
300
1:100
140
1.0
141
100.0
290
     0
  0
SCALE
  5
54
102
{ACAD_REACTORS
330
47
102
}
330
47
100
AcDbScale
 70
     0
300
2:1
140
2.0
141
1.0
290
     0
  0
SCALE
  5
55
102
{ACAD_REACTORS
330
47
102
}
330
47
100
AcDbScale
 70
     0
300
4:1
140
4.0
141
1.0
290
     0
  0
SCALE
  5
56
102
{ACAD_REACTORS
330
47
102
}
330
47
100
AcDbScale
 70
     0
300
8:1
140
8.0
141
1.0
290
     0
  0
SCALE
  5
57
102
{ACAD_REACTORS
330
47
102
}
330
47
100
AcDbScale
 70
     0
300
10:1
140
10.0
141
1.0
290
     0
  0
SCALE
  5
58
102
{ACAD_REACTORS
330
47
102
}
330
47
100
AcDbScale
 70
     0
300
100:1
140
100.0
141
1.0
290
     0
  0
SCALE
  5
59
102
{ACAD_REACTORS
330
47
102
}
330
47
100
AcDbScale
 70
     0
300
1/128" = 1'-0"
140
0.0078125
141
12.0
290
     0
  0
SCALE
  5
5A
102
{ACAD_REACTORS
330
47
102
}
330
47
100
AcDbScale
 70
     0
300
1/64" = 1'-0"
140
0.015625
141
12.0
290
     0
  0
SCALE
  5
5B
102
{ACAD_REACTORS
330
47
102
}
330
47
100
AcDbScale
 70
     0
300
1/32" = 1'-0"
140
0.03125
141
12.0
290
     0
  0
SCALE
  5
5C
102
{ACAD_REACTORS
330
47
102
}
330
47
100
AcDbScale
 70
     0
300
1/16" = 1'-0"
140
0.0625
141
12.0
290
     0
  0
SCALE
  5
5D
102
{ACAD_REACTORS
330
47
102
}
330
47
100
AcDbScale
 70
     0
300
3/32" = 1'-0"
140
0.09375
141
12.0
290
     0
  0
SCALE
  5
5E
102
{ACAD_REACTORS
330
47
102
}
330
47
100
AcDbScale
 70
     0
300
1/8" = 1'-0"
140
0.125
141
12.0
290
     0
  0
SCALE
  5
5F
102
{ACAD_REACTORS
330
47
102
}
330
47
100
AcDbScale
 70
     0
300
3/16" = 1'-0"
140
0.1875
141
12.0
290
     0
  0
SCALE
  5
60
102
{ACAD_REACTORS
330
47
102
}
330
47
100
AcDbScale
 70
     0
300
1/4" = 1'-0"
140
0.25
141
12.0
290
     0
  0
SCALE
  5
61
102
{ACAD_REACTORS
330
47
102
}
330
47
100
AcDbScale
 70
     0
300
3/8" = 1'-0"
140
0.375
141
12.0
290
     0
  0
SCALE
  5
62
102
{ACAD_REACTORS
330
47
102
}
330
47
100
AcDbScale
 70
     0
300
1/2" = 1'-0"
140
0.5
141
12.0
290
     0
  0
SCALE
  5
63
102
{ACAD_REACTORS
330
47
102
}
330
47
100
AcDbScale
 70
     0
300
3/4" = 1'-0"
140
0.75
141
12.0
290
     0
  0
SCALE
  5
64
102
{ACAD_REACTORS
330
47
102
}
330
47
100
AcDbScale
 70
     0
300
1" = 1'-0"
140
1.0
141
12.0
290
     0
  0
SCALE
  5
65
102
{ACAD_REACTORS
330
47
102
}
330
47
100
AcDbScale
 70
     0
300
1-1/2" = 1'-0"
140
1.5
141
12.0
290
     0
  0
SCALE
  5
66
102
{ACAD_REACTORS
330
47
102
}
330
47
100
AcDbScale
 70
     0
300
3" = 1'-0"
140
3.0
141
12.0
290
     0
  0
SCALE
  5
67
102
{ACAD_REACTORS
330
47
102
}
330
47
100
AcDbScale
 70
     0
300
6" = 1'-0"
140
6.0
141
12.0
290
     0
  0
SCALE
  5
68
102
{ACAD_REACTORS
330
47
102
}
330
47
100
AcDbScale
 70
     0
300
1'-0" = 1'-0"
140
12.0
141
12.0
290
     0
  0
ENDSEC
  0
EOF
