<?xml version="1.0" encoding="UTF-8" standalone="no"?>
<!-- Created with Inkscape (http://www.inkscape.org/) -->

<svg
   xmlns:dc="http://purl.org/dc/elements/1.1/"
   xmlns:cc="http://creativecommons.org/ns#"
   xmlns:rdf="http://www.w3.org/1999/02/22-rdf-syntax-ns#"
   xmlns:svg="http://www.w3.org/2000/svg"
   xmlns="http://www.w3.org/2000/svg"
   xmlns:sodipodi="http://sodipodi.sourceforge.net/DTD/sodipodi-0.dtd"
   xmlns:inkscape="http://www.inkscape.org/namespaces/inkscape"
   id="svg8"
   version="1.1"
   viewBox="0 0 210 297"
   height="297mm"
   width="210mm"
   inkscape:version="0.92.2 (5c3e80d, 2017-08-06)"
   sodipodi:docname="strap.svg">
  <sodipodi:namedview
     inkscape:window-maximized="1"
     inkscape:window-y="-11"
     inkscape:window-x="-11"
     inkscape:window-height="990"
     inkscape:window-width="1920"
     showborder="false"
     showgrid="false"
     inkscape:current-layer="layer1"
     inkscape:document-units="mm"
     inkscape:cy="877.73755"
     inkscape:cx="-737.92422"
     inkscape:zoom="1.4"
     inkscape:pageshadow="2"
     inkscape:pageopacity="0.0"
     borderopacity="1.0"
     bordercolor="#666666"
     pagecolor="#ffffff"
     id="base" />
  <defs
     id="defs2" />
  <metadata
     id="metadata5">
    <rdf:RDF>
      <cc:Work
         rdf:about="">
        <dc:format>image/svg+xml</dc:format>
        <dc:type
           rdf:resource="http://purl.org/dc/dcmitype/StillImage" />
        <dc:title></dc:title>
      </cc:Work>
    </rdf:RDF>
  </metadata>
  <g
     id="layer1"
     inkscape:groupmode="layer"
     inkscape:label="Layer 1">
    <rect
       y="48.238091"
       x="-302.38095"
       height="25"
       width="200"
       id="rect815"
       style="opacity:1;fill:#b3b3b3;fill-opacity:0.98837208;stroke:none;stroke-width:0.7380929;stroke-linecap:round;stroke-linejoin:round;stroke-miterlimit:4;stroke-dasharray:none;paint-order:fill markers stroke" />
    <path
       id="path879"
       style="stroke:#000000;stroke-width:0.1;fill:none"
       d="M -302.38095, 48.238091 L -302.38095, 53.863091 M -302.38095, 56.363091 L -302.38095, 65.113091 M -302.38095, 67.613091 L -302.38095, 73.238091 M -298.38095, 48.238091 L -298.38095, 53.863091 M -298.38095, 56.363091 L -298.38095, 65.113091 M -298.38095, 67.613091 L -298.38095, 73.238091 M -294.38095, 48.238091 L -294.38095, 53.863091 M -294.38095, 56.363091 L -294.38095, 65.113091 M -294.38095, 67.613091 L -294.38095, 73.238091 M -290.38095, 48.238091 L -290.38095, 53.863091 M -290.38095, 56.363091 L -290.38095, 65.113091 M -290.38095, 67.613091 L -290.38095, 73.238091 M -286.38095, 48.238091 L -286.38095, 53.863091 M -286.38095, 56.363091 L -286.38095, 65.113091 M -286.38095, 67.613091 L -286.38095, 73.238091 M -282.38095, 48.238091 L -282.38095, 53.863091 M -282.38095, 56.363091 L -282.38095, 65.113091 M -282.38095, 67.613091 L -282.38095, 73.238091 M -278.38095, 48.238091 L -278.38095, 53.863091 M -278.38095, 56.363091 L -278.38095, 65.113091 M -278.38095, 67.613091 L -278.38095, 73.238091 M -274.38095, 48.238091 L -274.38095, 53.863091 M -274.38095, 56.363091 L -274.38095, 65.113091 M -274.38095, 67.613091 L -274.38095, 73.238091 M -270.38095, 48.238091 L -270.38095, 53.863091 M -270.38095, 56.363091 L -270.38095, 65.113091 M -270.38095, 67.613091 L -270.38095, 73.238091 M -266.38095, 48.238091 L -266.38095, 53.863091 M -266.38095, 56.363091 L -266.38095, 65.113091 M -266.38095, 67.613091 L -266.38095, 73.238091 M -262.38095, 48.238091 L -262.38095, 53.863091 M -262.38095, 56.363091 L -262.38095, 65.113091 M -262.38095, 67.613091 L -262.38095, 73.238091 M -258.38095, 48.238091 L -258.38095, 53.863091 M -258.38095, 56.363091 L -258.38095, 65.113091 M -258.38095, 67.613091 L -258.38095, 73.238091 M -254.38095, 48.238091 L -254.38095, 53.863091 M -254.38095, 56.363091 L -254.38095, 65.113091 M -254.38095, 67.613091 L -254.38095, 73.238091 M -250.38095, 48.238091 L -250.38095, 53.863091 M -250.38095, 56.363091 L -250.38095, 65.113091 M -250.38095, 67.613091 L -250.38095, 73.238091 M -246.38095, 48.238091 L -246.38095, 53.863091 M -246.38095, 56.363091 L -246.38095, 65.113091 M -246.38095, 67.613091 L -246.38095, 73.238091 M -242.38095, 48.238091 L -242.38095, 53.863091 M -242.38095, 56.363091 L -242.38095, 65.113091 M -242.38095, 67.613091 L -242.38095, 73.238091 M -238.38095, 48.238091 L -238.38095, 53.863091 M -238.38095, 56.363091 L -238.38095, 65.113091 M -238.38095, 67.613091 L -238.38095, 73.238091 M -234.38095, 48.238091 L -234.38095, 53.863091 M -234.38095, 56.363091 L -234.38095, 65.113091 M -234.38095, 67.613091 L -234.38095, 73.238091 M -230.38095, 48.238091 L -230.38095, 53.863091 M -230.38095, 56.363091 L -230.38095, 65.113091 M -230.38095, 67.613091 L -230.38095, 73.238091 M -226.38095, 48.238091 L -226.38095, 53.863091 M -226.38095, 56.363091 L -226.38095, 65.113091 M -226.38095, 67.613091 L -226.38095, 73.238091 M -222.38095, 48.238091 L -222.38095, 53.863091 M -222.38095, 56.363091 L -222.38095, 65.113091 M -222.38095, 67.613091 L -222.38095, 73.238091 M -218.38095, 48.238091 L -218.38095, 53.863091 M -218.38095, 56.363091 L -218.38095, 65.113091 M -218.38095, 67.613091 L -218.38095, 73.238091 M -214.38095, 48.238091 L -214.38095, 53.863091 M -214.38095, 56.363091 L -214.38095, 65.113091 M -214.38095, 67.613091 L -214.38095, 73.238091 M -210.38095, 48.238091 L -210.38095, 53.863091 M -210.38095, 56.363091 L -210.38095, 65.113091 M -210.38095, 67.613091 L -210.38095, 73.238091 M -206.38095, 48.238091 L -206.38095, 53.863091 M -206.38095, 56.363091 L -206.38095, 65.113091 M -206.38095, 67.613091 L -206.38095, 73.238091 M -202.38095, 48.238091 L -202.38095, 53.863091 M -202.38095, 56.363091 L -202.38095, 65.113091 M -202.38095, 67.613091 L -202.38095, 73.238091 M -198.38095, 48.238091 L -198.38095, 53.863091 M -198.38095, 56.363091 L -198.38095, 65.113091 M -198.38095, 67.613091 L -198.38095, 73.238091 M -194.38095, 48.238091 L -194.38095, 53.863091 M -194.38095, 56.363091 L -194.38095, 65.113091 M -194.38095, 67.613091 L -194.38095, 73.238091 M -190.38095, 48.238091 L -190.38095, 53.863091 M -190.38095, 56.363091 L -190.38095, 65.113091 M -190.38095, 67.613091 L -190.38095, 73.238091 M -186.38095, 48.238091 L -186.38095, 53.863091 M -186.38095, 56.363091 L -186.38095, 65.113091 M -186.38095, 67.613091 L -186.38095, 73.238091 M -182.38095, 48.238091 L -182.38095, 53.863091 M -182.38095, 56.363091 L -182.38095, 65.113091 M -182.38095, 67.613091 L -182.38095, 73.238091 M -178.38095, 48.238091 L -178.38095, 53.863091 M -178.38095, 56.363091 L -178.38095, 65.113091 M -178.38095, 67.613091 L -178.38095, 73.238091 M -174.38095, 48.238091 L -174.38095, 53.863091 M -174.38095, 56.363091 L -174.38095, 65.113091 M -174.38095, 67.613091 L -174.38095, 73.238091 M -170.38095, 48.238091 L -170.38095, 53.863091 M -170.38095, 56.363091 L -170.38095, 65.113091 M -170.38095, 67.613091 L -170.38095, 73.238091 M -166.38095, 48.238091 L -166.38095, 53.863091 M -166.38095, 56.363091 L -166.38095, 65.113091 M -166.38095, 67.613091 L -166.38095, 73.238091 M -162.38095, 48.238091 L -162.38095, 53.863091 M -162.38095, 56.363091 L -162.38095, 65.113091 M -162.38095, 67.613091 L -162.38095, 73.238091 M -158.38095, 48.238091 L -158.38095, 53.863091 M -158.38095, 56.363091 L -158.38095, 65.113091 M -158.38095, 67.613091 L -158.38095, 73.238091 M -154.38095, 48.238091 L -154.38095, 53.863091 M -154.38095, 56.363091 L -154.38095, 65.113091 M -154.38095, 67.613091 L -154.38095, 73.238091 M -150.38095, 48.238091 L -150.38095, 53.863091 M -150.38095, 56.363091 L -150.38095, 65.113091 M -150.38095, 67.613091 L -150.38095, 73.238091 M -146.38095, 48.238091 L -146.38095, 53.863091 M -146.38095, 56.363091 L -146.38095, 65.113091 M -146.38095, 67.613091 L -146.38095, 73.238091 M -142.38095, 48.238091 L -142.38095, 53.863091 M -142.38095, 56.363091 L -142.38095, 65.113091 M -142.38095, 67.613091 L -142.38095, 73.238091 M -138.38095, 48.238091 L -138.38095, 53.863091 M -138.38095, 56.363091 L -138.38095, 65.113091 M -138.38095, 67.613091 L -138.38095, 73.238091 M -134.38095, 48.238091 L -134.38095, 53.863091 M -134.38095, 56.363091 L -134.38095, 65.113091 M -134.38095, 67.613091 L -134.38095, 73.238091 M -130.38095, 48.238091 L -130.38095, 53.863091 M -130.38095, 56.363091 L -130.38095, 65.113091 M -130.38095, 67.613091 L -130.38095, 73.238091 M -126.38095, 48.238091 L -126.38095, 53.863091 M -126.38095, 56.363091 L -126.38095, 65.113091 M -126.38095, 67.613091 L -126.38095, 73.238091 M -122.38095, 48.238091 L -122.38095, 53.863091 M -122.38095, 56.363091 L -122.38095, 65.113091 M -122.38095, 67.613091 L -122.38095, 73.238091 M -118.38095, 48.238091 L -118.38095, 53.863091 M -118.38095, 56.363091 L -118.38095, 65.113091 M -118.38095, 67.613091 L -118.38095, 73.238091 M -114.38095, 48.238091 L -114.38095, 53.863091 M -114.38095, 56.363091 L -114.38095, 65.113091 M -114.38095, 67.613091 L -114.38095, 73.238091 M -110.38095, 48.238091 L -110.38095, 53.863091 M -110.38095, 56.363091 L -110.38095, 65.113091 M -110.38095, 67.613091 L -110.38095, 73.238091 M -106.38095, 48.238091 L -106.38095, 53.863091 M -106.38095, 56.363091 L -106.38095, 65.113091 M -106.38095, 67.613091 L -106.38095, 73.238091 M -102.38095, 48.238091 L -102.38095, 53.863091 M -102.38095, 56.363091 L -102.38095, 65.113091 M -102.38095, 67.613091 L -102.38095, 73.238091 M -300.38095, 50.738091 L -300.38095, 59.488091 M -300.38095, 61.988091 L -300.38095, 70.738091 M -296.38095, 50.738091 L -296.38095, 59.488091 M -296.38095, 61.988091 L -296.38095, 70.738091 M -292.38095, 50.738091 L -292.38095, 59.488091 M -292.38095, 61.988091 L -292.38095, 70.738091 M -288.38095, 50.738091 L -288.38095, 59.488091 M -288.38095, 61.988091 L -288.38095, 70.738091 M -284.38095, 50.738091 L -284.38095, 59.488091 M -284.38095, 61.988091 L -284.38095, 70.738091 M -280.38095, 50.738091 L -280.38095, 59.488091 M -280.38095, 61.988091 L -280.38095, 70.738091 M -276.38095, 50.738091 L -276.38095, 59.488091 M -276.38095, 61.988091 L -276.38095, 70.738091 M -272.38095, 50.738091 L -272.38095, 59.488091 M -272.38095, 61.988091 L -272.38095, 70.738091 M -268.38095, 50.738091 L -268.38095, 59.488091 M -268.38095, 61.988091 L -268.38095, 70.738091 M -264.38095, 50.738091 L -264.38095, 59.488091 M -264.38095, 61.988091 L -264.38095, 70.738091 M -260.38095, 50.738091 L -260.38095, 59.488091 M -260.38095, 61.988091 L -260.38095, 70.738091 M -256.38095, 50.738091 L -256.38095, 59.488091 M -256.38095, 61.988091 L -256.38095, 70.738091 M -252.38095, 50.738091 L -252.38095, 59.488091 M -252.38095, 61.988091 L -252.38095, 70.738091 M -248.38095, 50.738091 L -248.38095, 59.488091 M -248.38095, 61.988091 L -248.38095, 70.738091 M -244.38095, 50.738091 L -244.38095, 59.488091 M -244.38095, 61.988091 L -244.38095, 70.738091 M -240.38095, 50.738091 L -240.38095, 59.488091 M -240.38095, 61.988091 L -240.38095, 70.738091 M -236.38095, 50.738091 L -236.38095, 59.488091 M -236.38095, 61.988091 L -236.38095, 70.738091 M -232.38095, 50.738091 L -232.38095, 59.488091 M -232.38095, 61.988091 L -232.38095, 70.738091 M -228.38095, 50.738091 L -228.38095, 59.488091 M -228.38095, 61.988091 L -228.38095, 70.738091 M -224.38095, 50.738091 L -224.38095, 59.488091 M -224.38095, 61.988091 L -224.38095, 70.738091 M -220.38095, 50.738091 L -220.38095, 59.488091 M -220.38095, 61.988091 L -220.38095, 70.738091 M -216.38095, 50.738091 L -216.38095, 59.488091 M -216.38095, 61.988091 L -216.38095, 70.738091 M -212.38095, 50.738091 L -212.38095, 59.488091 M -212.38095, 61.988091 L -212.38095, 70.738091 M -208.38095, 50.738091 L -208.38095, 59.488091 M -208.38095, 61.988091 L -208.38095, 70.738091 M -204.38095, 50.738091 L -204.38095, 59.488091 M -204.38095, 61.988091 L -204.38095, 70.738091 M -200.38095, 50.738091 L -200.38095, 59.488091 M -200.38095, 61.988091 L -200.38095, 70.738091 M -196.38095, 50.738091 L -196.38095, 59.488091 M -196.38095, 61.988091 L -196.38095, 70.738091 M -192.38095, 50.738091 L -192.38095, 59.488091 M -192.38095, 61.988091 L -192.38095, 70.738091 M -188.38095, 50.738091 L -188.38095, 59.488091 M -188.38095, 61.988091 L -188.38095, 70.738091 M -184.38095, 50.738091 L -184.38095, 59.488091 M -184.38095, 61.988091 L -184.38095, 70.738091 M -180.38095, 50.738091 L -180.38095, 59.488091 M -180.38095, 61.988091 L -180.38095, 70.738091 M -176.38095, 50.738091 L -176.38095, 59.488091 M -176.38095, 61.988091 L -176.38095, 70.738091 M -172.38095, 50.738091 L -172.38095, 59.488091 M -172.38095, 61.988091 L -172.38095, 70.738091 M -168.38095, 50.738091 L -168.38095, 59.488091 M -168.38095, 61.988091 L -168.38095, 70.738091 M -164.38095, 50.738091 L -164.38095, 59.488091 M -164.38095, 61.988091 L -164.38095, 70.738091 M -160.38095, 50.738091 L -160.38095, 59.488091 M -160.38095, 61.988091 L -160.38095, 70.738091 M -156.38095, 50.738091 L -156.38095, 59.488091 M -156.38095, 61.988091 L -156.38095, 70.738091 M -152.38095, 50.738091 L -152.38095, 59.488091 M -152.38095, 61.988091 L -152.38095, 70.738091 M -148.38095, 50.738091 L -148.38095, 59.488091 M -148.38095, 61.988091 L -148.38095, 70.738091 M -144.38095, 50.738091 L -144.38095, 59.488091 M -144.38095, 61.988091 L -144.38095, 70.738091 M -140.38095, 50.738091 L -140.38095, 59.488091 M -140.38095, 61.988091 L -140.38095, 70.738091 M -136.38095, 50.738091 L -136.38095, 59.488091 M -136.38095, 61.988091 L -136.38095, 70.738091 M -132.38095, 50.738091 L -132.38095, 59.488091 M -132.38095, 61.988091 L -132.38095, 70.738091 M -128.38095, 50.738091 L -128.38095, 59.488091 M -128.38095, 61.988091 L -128.38095, 70.738091 M -124.38095, 50.738091 L -124.38095, 59.488091 M -124.38095, 61.988091 L -124.38095, 70.738091 M -120.38095, 50.738091 L -120.38095, 59.488091 M -120.38095, 61.988091 L -120.38095, 70.738091 M -116.38095, 50.738091 L -116.38095, 59.488091 M -116.38095, 61.988091 L -116.38095, 70.738091 M -112.38095, 50.738091 L -112.38095, 59.488091 M -112.38095, 61.988091 L -112.38095, 70.738091 M -108.38095, 50.738091 L -108.38095, 59.488091 M -108.38095, 61.988091 L -108.38095, 70.738091 M -104.38095, 50.738091 L -104.38095, 59.488091 M -104.38095, 61.988091 L -104.38095, 70.738091 ">
      <desc
         id="desc877">Hinge cut parameters: actual(requested)
cut length: 8.75 mm (8.00 mm)
gap length: 2.50 mm (2.50 mm)
separation distance: 2.00 mm (2.00 mm)</desc>
    </path>
  </g>
</svg>
